<svg width="3566" height="836" viewBox="0 0 3566 836" fill="none" xmlns="http://www.w3.org/2000/svg">
<path fill-rule="evenodd" clip-rule="evenodd" d="M487.905 74.1312L694.009 230.28L694.986 686.457L326.398 761.475L120.293 605.326L119.317 149.149L487.905 74.1312Z" fill="black"/>
<path d="M283 456.521L283 576.521" stroke="white" stroke-width="90" stroke-linecap="round"/>
<path d="M285.2 455.158L530.347 406.137" stroke="white" stroke-width="90" stroke-linecap="round"/>
<path d="M283.2 309.413L530.308 260" stroke="white" stroke-width="90" stroke-linecap="round"/>
<path d="M1027.37 148.126C1052.49 148.126 1077.87 148.383 1103.5 148.895C1129.13 148.895 1154.5 149.152 1179.62 149.664C1204.73 150.177 1228.57 151.458 1251.13 153.509L1247.28 211.946H1049.67C1032.24 211.946 1019.43 215.791 1011.23 223.48C1003.54 231.169 999.693 243.472 999.693 260.388V679.446H922.802V245.778C922.802 215.022 932.285 191.185 951.251 174.269C970.218 156.841 995.592 148.126 1027.37 148.126ZM935.873 378.032H1218.06V438.007H935.873V378.032Z" fill="black"/>
<path d="M1461.09 294.989C1505.17 294.989 1540.28 301.396 1566.43 314.212C1593.08 327.027 1612.05 348.044 1623.33 377.263C1635.12 405.969 1641.01 444.158 1641.01 491.831C1641.01 540.016 1635.12 578.718 1623.33 607.937C1612.05 636.643 1593.08 657.404 1566.43 670.219C1540.28 683.034 1505.17 689.442 1461.09 689.442C1417.52 689.442 1382.4 683.034 1355.75 670.219C1329.6 657.404 1310.64 636.643 1298.85 607.937C1287.06 578.718 1281.16 540.016 1281.16 491.831C1281.16 444.158 1287.06 405.969 1298.85 377.263C1310.64 348.044 1329.6 327.027 1355.75 314.212C1382.4 301.396 1417.52 294.989 1461.09 294.989ZM1461.09 354.964C1435.46 354.964 1415.21 359.065 1400.34 367.267C1385.48 375.468 1374.97 389.565 1368.82 409.557C1362.67 429.036 1359.59 456.461 1359.59 491.831C1359.59 527.201 1362.67 554.882 1368.82 574.873C1374.97 594.865 1385.48 608.962 1400.34 617.164C1415.21 624.853 1435.46 628.697 1461.09 628.697C1486.72 628.697 1506.97 624.853 1521.83 617.164C1537.21 608.962 1547.97 594.865 1554.13 574.873C1560.28 554.882 1563.35 527.201 1563.35 491.831C1563.35 456.461 1560.28 429.036 1554.13 409.557C1547.97 389.565 1537.21 375.468 1521.83 367.267C1506.97 359.065 1486.72 354.964 1461.09 354.964Z" fill="black"/>
<path d="M1773.24 304.216L1782.46 376.494L1789.38 387.258V679.446H1715.57V304.216H1773.24ZM1957 294.989L1949.32 364.191H1925.48C1904.46 364.191 1882.93 368.292 1860.89 376.494C1839.36 384.695 1812.96 396.485 1781.69 411.864L1776.31 366.498C1803.48 343.943 1830.9 326.514 1858.58 314.212C1886.78 301.396 1913.95 294.989 1940.09 294.989H1957Z" fill="black"/>
<path d="M2476.86 294.989C2509.67 294.989 2534.53 303.703 2551.45 321.132C2568.88 338.561 2577.59 364.191 2577.59 398.023V679.446H2503.77V419.553C2503.77 398.023 2499.42 382.389 2490.7 372.649C2482.5 362.397 2468.4 357.271 2448.41 357.271C2436.11 357.271 2424.32 359.321 2413.04 363.422C2401.77 367.523 2389.21 373.931 2375.37 382.645C2361.53 390.847 2344.87 402.124 2325.39 416.477L2321.54 366.498C2348.2 342.405 2374.08 324.464 2399.2 312.674C2424.32 300.884 2450.21 294.989 2476.86 294.989ZM2077.03 304.216L2082.41 376.494L2090.1 387.258V679.446H2016.29V304.216H2077.03ZM2233.12 294.989C2265.41 294.989 2290.02 303.703 2306.93 321.132C2323.85 338.048 2332.56 363.678 2333.08 398.023V679.446H2261.57V419.553C2261.57 396.998 2256.95 381.107 2247.73 371.88C2238.5 362.141 2224.66 357.271 2206.21 357.271C2193.9 357.271 2182.11 359.321 2170.84 363.422C2159.56 367.01 2146.74 373.162 2132.39 381.876C2118.55 390.078 2101.63 401.612 2081.64 416.477L2077.03 366.498C2103.69 342.405 2129.57 324.464 2154.69 312.674C2179.81 300.884 2205.95 294.989 2233.12 294.989Z" fill="black"/>
<path d="M2738.79 304.216V564.109C2738.79 586.663 2743.15 602.554 2751.86 611.781C2760.58 621.008 2775.19 625.622 2795.69 625.622C2815.68 625.622 2835.42 621.008 2854.9 611.781C2874.89 602.554 2898.98 588.97 2927.17 571.029L2935.63 619.47C2906.93 642.538 2878.73 659.967 2851.05 671.757C2823.88 683.547 2796.2 689.442 2768.01 689.442C2699.32 689.442 2664.98 655.097 2664.98 586.407V304.216H2738.79ZM2994.07 304.216V679.446H2934.09L2927.17 607.937L2919.48 596.403V304.216H2994.07Z" fill="black"/>
<path d="M3171.74 141.206L3165.14 572.567C3165.14 588.458 3169.5 600.504 3178.22 608.706C3187.44 616.907 3200 621.008 3215.89 621.008H3251.26L3259.72 675.601C3254.59 678.164 3247.42 680.215 3238.19 681.752C3229.48 683.29 3220.25 684.316 3210.51 684.828C3201.28 685.853 3193.34 686.366 3186.67 686.366C3157.97 686.366 3134.9 678.164 3117.47 661.761C3100.56 645.357 3092.1 621.521 3092.1 590.252L3097.92 141.206H3171.74Z" fill="black"/>
<path d="M3381.77 304.216L3391 376.494L3397.92 387.258V679.446H3324.1V304.216H3381.77ZM3565.54 294.989L3557.85 364.191H3534.02C3513 364.191 3491.47 368.292 3469.43 376.494C3447.9 384.695 3421.5 396.485 3390.23 411.864L3384.85 366.498C3412.02 343.943 3439.44 326.514 3467.12 314.212C3495.31 301.396 3522.48 294.989 3548.63 294.989H3565.54Z" fill="black"/>
</svg>
